<svg width="17" height="18" viewBox="0 0 17 18" fill="none" xmlns="http://www.w3.org/2000/svg">
<path d="M10.5815 17.1034C10.3394 17.262 10.2276 17.262 9.94826 17.3149C9.68754 17.3678 9.4175 17.403 9.13815 17.4206C8.85881 17.4383 8.57015 17.4471 8.27218 17.4471C7.99283 17.4471 7.71348 17.4647 7.43414 17.5C7.34102 17.5 7.2479 17.4559 7.15479 17.3678C7.0803 17.2796 7.02443 17.1915 6.98718 17.1034C6.94993 16.9976 6.94993 16.9007 6.98718 16.8126C7.02443 16.7068 7.08961 16.6451 7.18272 16.6275C7.55519 16.5394 7.76004 16.3631 7.79729 16.0987C7.85316 15.8343 7.86247 15.5788 7.82522 15.332C7.78798 14.909 7.77866 14.4948 7.79729 14.0894C7.83453 13.684 7.87178 13.2786 7.90903 12.8732C7.94627 12.4678 7.98352 12.0624 8.02076 11.657C8.05801 11.2516 8.06732 10.8374 8.0487 10.4144C8.01145 9.67415 7.9649 8.93387 7.90903 8.19359C7.87178 7.45331 7.83453 6.71303 7.79729 5.97275C7.77866 5.30297 7.78798 4.63319 7.82522 3.96342C7.88109 3.29364 7.86247 2.62386 7.76935 1.95408C7.75073 1.83071 7.74142 1.70733 7.74142 1.58394C7.74142 1.44294 7.61106 1.35481 7.35033 1.31956C7.25722 1.31956 7.1641 1.26668 7.07098 1.16093C6.97787 1.05517 6.94062 0.940606 6.95925 0.817227C6.99649 0.676221 7.07098 0.596905 7.18272 0.579279C7.29446 0.561654 7.42482 0.544028 7.57381 0.526401C8.11388 0.49115 8.65395 0.49115 9.19402 0.526401C9.73409 0.561653 9.20825 0.499878 9.91659 0.499878C10.2708 0.499964 10.4478 0.854131 10.4478 0.854131C10.4478 1.03121 10.479 1.28431 10.3673 1.31956C9.97619 1.39006 9.7434 1.54869 9.66891 1.79545C9.61304 2.04221 9.60373 2.31541 9.64098 2.61505C9.78996 3.83122 9.83652 5.02977 9.78065 6.21069C9.72478 7.37399 9.69685 8.5461 9.69685 9.72702C9.71547 10.7669 9.69685 11.798 9.64098 12.8203C9.60373 13.8426 9.63167 14.8737 9.72478 15.9136C9.7434 16.0723 9.79927 16.1957 9.89239 16.2838C9.98551 16.3719 10.0879 16.4424 10.1997 16.4953C10.3114 16.5482 10.4138 16.6099 10.507 16.6804C10.6187 16.7509 10.6249 16.9687 10.5815 17.1034Z" fill="black"/>
<path d="M0.354168 10.7225C0.195536 10.4804 0.237947 10.5021 0.185072 10.2228C0.132194 9.96207 0.0969428 9.69204 0.079317 9.41269C0.0616912 9.13334 0.0528793 8.84468 0.0528793 8.54671C0.0528793 8.26737 0.0352516 8.21681 -3.09623e-08 7.93746C-2.6892e-08 7.84434 0.0889549 7.67641 0.177084 7.58329C0.21529 7.54293 0.53125 7.58329 0.53125 7.58329C0.53125 7.58329 0.679697 7.57321 0.708334 7.58329C0.814089 7.62054 0.885418 7.76038 0.885418 7.76038C1.0625 7.93746 1.13686 8.03458 1.40125 8.07182C1.66563 8.12769 1.9212 8.137 2.16796 8.09976C2.59098 8.06251 3.00518 8.0532 3.41058 8.07182C3.81597 8.10907 4.22136 8.14632 4.62675 8.18356C5.03214 8.22081 5.43753 8.25805 5.84292 8.2953C6.24832 8.33255 6.66252 8.34186 7.08554 8.32324C7.82582 8.28599 8.5661 8.23943 9.30638 8.18356C10.0467 8.14632 10.7869 8.10907 11.5272 8.07182C12.197 8.0532 12.8668 8.06251 13.5365 8.09976C14.2063 8.15563 14.8761 8.137 15.5459 8.04389C15.6693 8.02527 15.7926 8.01595 15.916 8.01595C16.057 8.01595 16.1452 7.88559 16.1804 7.62487C16.1804 7.53175 16.2333 7.43864 16.339 7.34552C16.4448 7.2524 16.5594 7.21516 16.6827 7.23378C16.8237 7.27103 16.9031 7.34552 16.9207 7.45726C16.9383 7.569 16.9559 7.69936 16.9736 7.84835C17.0088 8.38842 17.0088 8.92849 16.9736 9.46856C16.9383 10.0086 17.0521 10.0536 16.8229 10.5937C16.6819 10.6123 16.1675 10.5284 16.1146 10.4166C16.1146 10.4166 15.9728 10.1742 15.9375 10.0625C15.9375 10.0625 15.9513 10.0179 15.7045 9.94345C15.4577 9.88758 15.1846 9.87827 14.8849 9.91551C13.6687 10.0645 12.4702 10.1111 11.2893 10.0552C10.126 9.99932 8.95386 9.97138 7.77294 9.97138C6.73302 9.99001 5.70192 9.97138 4.67963 9.91551C3.65734 9.87827 2.62623 9.9062 1.58631 9.99932C1.42768 10.0179 1.3043 10.0738 1.21617 10.1669C1.12805 10.26 1.05754 10.3625 1.00467 10.4742C0.95179 10.5859 0.890098 10.6884 0.819595 10.7815C0.749092 10.8932 0.447414 10.7815 0.354168 10.7225Z" fill="black"/>
</svg>
