<svg width="158" height="89" viewBox="0 0 158 89" fill="none" xmlns="http://www.w3.org/2000/svg">
<path d="M2.82928 59.8187C11.6291 87.4725 44.965 72.9981 44.965 72.9981C44.965 72.9981 64.4327 88.4545 78.9939 88.4545C102.572 88.4545 117.434 72.9981 117.434 72.9981C117.434 72.9981 150.121 83.4329 155.663 63.5752C163.027 37.1856 138.442 29.3787 138.442 29.3787C138.442 29.3787 140.367 9.72556 119.062 2.61005C92.6997 -6.19479 78.9939 15.2727 78.9939 15.2727C78.9939 15.2727 65.0758 -3.09383 40.4994 5.07583C19.911 11.9198 21.1262 29.3787 21.1262 29.3787C21.1262 29.3787 -6.85712 29.3787 2.82928 59.8187Z" fill="white"/>
</svg>
