<svg width="39" height="54" viewBox="0 0 39 54" fill="none" xmlns="http://www.w3.org/2000/svg">
<path d="M17.5398 32.6077C16.9919 34.1965 16.2797 35.7306 15.4031 37.2098C14.5813 38.6343 13.7047 40.0588 12.7733 41.4833C11.8419 42.9078 10.9105 44.3323 9.97909 45.7567C9.10249 47.1812 8.30806 48.6879 7.59582 50.2767C7.86976 50.4959 8.17109 50.5781 8.49982 50.5233C8.88334 50.4685 9.23946 50.4137 9.56818 50.3589C9.9517 50.2494 10.3078 50.2494 10.6365 50.3589C10.9653 50.4137 11.2118 50.7151 11.3762 51.2629C11.1022 51.7012 10.4996 52.0574 9.56818 52.3313C8.63679 52.5504 7.62322 52.7148 6.52746 52.8244C5.4317 52.8792 4.36334 52.8518 3.32237 52.7422C2.33618 52.6326 1.62394 52.4135 1.18564 52.0848C1.62394 50.7151 2.06224 49.9206 2.50055 49.7015C2.93885 49.4275 3.84285 49.5371 5.21255 50.0302C6.30831 48.2222 7.40406 46.4142 8.49982 44.6062C9.59558 42.7982 10.7461 41.0176 11.9515 39.2644C12.7733 38.0043 13.5129 36.6894 14.1704 35.3197C14.8826 33.95 15.6222 32.6077 16.3893 31.2927C16.6084 30.9092 16.6632 30.5805 16.5536 30.3066C16.4989 30.0326 16.3893 29.7587 16.2249 29.4848C15.677 28.4986 15.0744 27.5398 14.4169 26.6084C13.8142 25.677 13.3759 24.6634 13.102 23.5677C12.7733 22.198 12.2254 20.9378 11.4584 19.7873C10.7461 18.6368 10.1435 17.404 9.65037 16.0891C8.88334 13.9524 7.89715 11.9252 6.69182 10.0077C5.54128 8.09009 4.44552 6.14512 3.40455 4.17275C3.24018 3.84402 2.96624 3.67966 2.58273 3.67966C2.254 3.62487 1.92527 3.57008 1.59655 3.5153C0.829517 3.5153 0.473396 3.15917 0.528184 2.44693C0.582972 2.17299 0.63776 1.92645 0.692548 1.7073C0.802123 1.48814 1.07606 1.35117 1.51437 1.29639C2.11703 1.18681 2.7197 1.04984 3.32237 0.885478C3.97982 0.721113 4.60988 0.858082 5.21255 1.29639C5.70564 1.62511 6.19873 1.7073 6.69182 1.54293C7.18491 1.37857 7.678 1.29639 8.17109 1.29639C8.66418 1.29639 9.18467 1.35118 9.73255 1.46075C10.2804 1.57033 10.6365 1.87166 10.8009 2.36475C10.9653 2.96742 10.7735 3.32354 10.2256 3.43312C9.67776 3.54269 9.18467 3.65227 8.74637 3.76184C10.6639 7.37784 12.3898 10.9938 13.9238 14.6098C15.5127 18.2258 17.2659 21.7871 19.1835 25.2935C20.4436 24.3073 21.4024 23.1841 22.0598 21.924C22.7721 20.6639 23.3747 19.3216 23.8678 17.8971C24.3061 16.7466 24.8266 15.6508 25.4293 14.6098C26.0319 13.5689 26.6894 12.5553 27.4016 11.5691C28.0591 10.5829 28.6618 9.56936 29.2096 8.52839C29.7575 7.48742 30.4972 6.58342 31.4286 5.81639C31.5381 5.70681 31.6203 5.54245 31.6751 5.3233C31.7299 5.04936 31.8121 4.77542 31.9216 4.50148C31.5929 4.44669 31.319 4.41929 31.0998 4.41929C30.8807 4.36451 30.6615 4.36451 30.4424 4.41929C30.0041 4.52887 29.5932 4.50148 29.2096 4.33711C28.8809 4.11796 28.7166 3.78924 28.7166 3.35093C28.7166 2.96742 28.8809 2.66608 29.2096 2.44693C29.5384 2.22778 29.9219 2.1456 30.3602 2.20039C31.4559 2.25518 32.5791 2.30996 33.7296 2.36475C34.8802 2.36475 36.0033 2.55651 37.0991 2.94002C37.7018 3.10439 38.0853 3.4879 38.2496 4.09057C37.647 4.74802 36.9347 4.99457 36.1129 4.8302C35.4007 4.66584 34.8528 4.74802 34.4693 5.07675C34.0858 5.35069 33.7844 5.7616 33.5653 6.30948C32.9626 7.89833 32.0586 9.29542 30.8533 10.5007C29.7027 11.6513 28.7713 12.9936 28.0591 14.5277C27.4564 15.8974 26.7716 17.2123 26.0045 18.4724C25.2375 19.7325 24.5527 21.0474 23.95 22.4171C23.8404 22.7458 23.7035 23.0746 23.5391 23.4033C23.4295 23.732 23.2378 24.006 22.9638 24.2251C21.5393 25.4852 20.9093 26.718 21.0736 27.9233C21.2928 29.1286 21.8407 30.4435 22.7173 31.868C24.5801 34.9361 26.2511 38.0864 27.7304 41.3189C29.2096 44.5514 30.9081 47.7291 32.8256 50.852C33.0996 50.9068 33.3735 50.9342 33.6475 50.9342C33.9762 50.8794 34.3049 50.8794 34.6336 50.9342C34.9624 50.989 35.2637 51.0986 35.5376 51.2629C35.8664 51.4273 36.1403 51.7012 36.3595 52.0848C36.0855 52.6874 35.6746 52.934 35.1267 52.8244C34.5789 52.7148 34.0858 52.7148 33.6475 52.8244C31.5655 53.2627 29.511 53.5092 27.4838 53.564C27.0455 53.6188 26.6072 53.6188 26.1689 53.564C25.7854 53.5092 25.5389 53.1531 25.4293 52.4957C25.2649 51.2355 25.7306 50.5233 26.8264 50.3589C26.0046 48.8797 25.2375 47.4004 24.5253 45.9211C23.8678 44.3871 23.183 42.853 22.4707 41.3189C21.7585 39.7849 20.9915 38.3056 20.1696 36.8811C19.4026 35.4018 18.526 33.9774 17.5398 32.6077Z" fill="white"/>
</svg>
