<svg width="20" height="28" viewBox="0 0 20 28" fill="none" xmlns="http://www.w3.org/2000/svg">
<path d="M9.0155 16.5808C8.73913 17.3822 8.37986 18.1561 7.93768 18.9022C7.52313 19.6208 7.08095 20.3393 6.61113 21.0579C6.14131 21.7764 5.6715 22.495 5.20168 23.2135C4.7595 23.9321 4.35877 24.6921 3.9995 25.4935C4.13768 25.6041 4.28968 25.6455 4.4555 25.6179C4.64895 25.5902 4.82859 25.5626 4.9944 25.535C5.18786 25.4797 5.3675 25.4797 5.53331 25.535C5.69913 25.5626 5.8235 25.7146 5.9064 25.991C5.76822 26.2121 5.46422 26.3917 4.9944 26.5299C4.52459 26.6404 4.01331 26.7233 3.46059 26.7786C2.90786 26.8062 2.36895 26.7924 1.84386 26.7371C1.3464 26.6819 0.987132 26.5713 0.766041 26.4055C0.987132 25.7146 1.20822 25.3139 1.42931 25.2033C1.6504 25.0651 2.1064 25.1204 2.79731 25.3691C3.35004 24.4571 3.90277 23.5451 4.4555 22.6331C5.00822 21.7211 5.58859 20.823 6.19659 19.9386C6.61113 19.303 6.98422 18.6397 7.31586 17.9488C7.67513 17.2579 8.04822 16.5808 8.43513 15.9175C8.54568 15.7241 8.57331 15.5582 8.51804 15.4201C8.49041 15.2819 8.43513 15.1437 8.35222 15.0055C8.07586 14.5081 7.77186 14.0244 7.44022 13.5546C7.13622 13.0848 6.91513 12.5735 6.77695 12.0208C6.61113 11.3299 6.33477 10.6942 5.94786 10.1139C5.58859 9.53351 5.28459 8.91169 5.03586 8.24842C4.64895 7.1706 4.1515 6.14806 3.5435 5.18078C2.96313 4.21351 2.4104 3.23242 1.88531 2.23751C1.8024 2.07169 1.66422 1.98878 1.47077 1.98878C1.30495 1.96115 1.13913 1.93351 0.973313 1.90587C0.586404 1.90587 0.406768 1.72624 0.434404 1.36696C0.462041 1.22878 0.489677 1.10442 0.517313 0.993873C0.572586 0.883327 0.710768 0.814236 0.931859 0.7866C1.23586 0.731328 1.53986 0.662238 1.84386 0.579328C2.1755 0.496418 2.49331 0.565509 2.79731 0.7866C3.04604 0.952418 3.29477 0.993873 3.5435 0.910965C3.79222 0.828055 4.04095 0.7866 4.28968 0.7866C4.5384 0.7866 4.80095 0.814237 5.07731 0.869511C5.35368 0.924783 5.53331 1.07678 5.61622 1.32551C5.69913 1.62951 5.60241 1.80915 5.32604 1.86442C5.04968 1.91969 4.80095 1.97496 4.57986 2.03024C5.54713 3.85424 6.41768 5.67824 7.1915 7.50224C7.99295 9.32624 8.87731 11.1226 9.84459 12.8913C10.4802 12.3939 10.9639 11.8273 11.2955 11.1917C11.6548 10.5561 11.9588 9.87896 12.2075 9.16042C12.4286 8.58006 12.6911 8.02733 12.9951 7.50224C13.2991 6.97715 13.6308 6.46587 13.99 5.96842C14.3217 5.47096 14.6257 4.95969 14.902 4.4346C15.1784 3.90951 15.5515 3.45351 16.0213 3.0666C16.0766 3.01133 16.118 2.92842 16.1457 2.81787C16.1733 2.67969 16.2148 2.54151 16.27 2.40333C16.1042 2.37569 15.966 2.36187 15.8555 2.36187C15.745 2.33424 15.6344 2.33424 15.5239 2.36187C15.3028 2.41715 15.0955 2.40333 14.902 2.32042C14.7362 2.20987 14.6533 2.04406 14.6533 1.82297C14.6533 1.62951 14.7362 1.47751 14.902 1.36696C15.0679 1.25642 15.2613 1.21496 15.4824 1.2426C16.0351 1.27024 16.6017 1.29787 17.182 1.32551C17.7624 1.32551 18.329 1.42224 18.8817 1.61569C19.1857 1.6986 19.3791 1.89205 19.462 2.19605C19.158 2.52769 18.7988 2.65205 18.3842 2.56914C18.025 2.48624 17.7486 2.52769 17.5551 2.69351C17.3617 2.83169 17.2097 3.03896 17.0991 3.31533C16.7951 4.11678 16.3391 4.82151 15.7311 5.42951C15.1508 6.00987 14.681 6.68696 14.3217 7.46078C14.0177 8.15169 13.6722 8.81496 13.2853 9.4506C12.8984 10.0862 12.553 10.7495 12.249 11.4404C12.1937 11.6062 12.1246 11.7721 12.0417 11.9379C11.9864 12.1037 11.8897 12.2419 11.7515 12.3524C11.033 12.9881 10.7151 13.6099 10.798 14.2179C10.9086 14.8259 11.185 15.4891 11.6271 16.2077C12.5668 17.7553 13.4097 19.3444 14.1559 20.975C14.902 22.6055 15.7588 24.2084 16.726 25.7837C16.8642 25.8113 17.0024 25.8251 17.1406 25.8251C17.3064 25.7975 17.4722 25.7975 17.638 25.8251C17.8039 25.8528 17.9559 25.9081 18.094 25.991C18.2599 26.0739 18.398 26.2121 18.5086 26.4055C18.3704 26.7095 18.1631 26.8339 17.8868 26.7786C17.6104 26.7233 17.3617 26.7233 17.1406 26.7786C16.0904 26.9997 15.054 27.1241 14.0315 27.1517C13.8104 27.1793 13.5893 27.1793 13.3682 27.1517C13.1748 27.1241 13.0504 26.9444 12.9951 26.6128C12.9122 25.9771 13.1471 25.6179 13.6999 25.535C13.2853 24.7888 12.8984 24.0426 12.5391 23.2964C12.2075 22.5226 11.862 21.7488 11.5028 20.975C11.1435 20.2011 10.7566 19.455 10.342 18.7364C9.95513 17.9902 9.51295 17.2717 9.0155 16.5808Z" fill="black"/>
</svg>
