<svg width="439" height="105" viewBox="0 0 439 105" fill="none" xmlns="http://www.w3.org/2000/svg">
<path d="M3.60178 1.34555C3.34609 0.557579 2.50003 0.126059 1.71205 0.381739C0.924066 0.637419 0.492552 1.48347 0.74822 2.27147L3.60178 1.34555ZM438.479 48.8083L421.206 47.5245L428.73 63.1251L438.479 48.8083ZM150.5 52.5L149.082 52.9907L150.5 52.5ZM164 83L164.938 84.1706L164 83ZM168 24.5L167.711 23.0281L168 24.5ZM198.979 86.3083L199.554 84.9228L198.979 86.3083ZM66.979 89.8083L66.3524 91.1712L66.979 89.8083ZM191.5 49L190.121 48.4091L191.5 49ZM321 96L320.613 94.5506L321 96ZM2.31953 6.71034C2.60774 7.48702 3.47101 7.88298 4.24769 7.59475C5.02435 7.30655 5.42032 6.44328 5.13211 5.66659L2.31953 6.71034ZM8.54063 14.2717C8.22009 13.5078 7.34098 13.1483 6.57708 13.4688C5.81318 13.7894 5.45374 14.6685 5.77428 15.4324L8.54063 14.2717ZM9.56676 24.0115C9.91593 24.7628 10.808 25.0887 11.5592 24.7396C12.3105 24.3904 12.6364 23.4983 12.2872 22.7471L9.56676 24.0115ZM16.3593 31.0846C15.9812 30.3475 15.0772 30.0564 14.3401 30.4345C13.6029 30.8126 13.3119 31.7166 13.6899 32.4538L16.3593 31.0846ZM18.1427 40.7124C18.5512 41.4331 19.4666 41.6862 20.1873 41.2777C20.908 40.8691 21.161 39.9537 20.7525 39.233L18.1427 40.7124ZM25.5003 47.1809C25.0587 46.48 24.1325 46.2698 23.4316 46.7114C22.7306 47.1529 22.5204 48.0791 22.962 48.78L25.5003 47.1809ZM28.1805 56.607C28.6585 57.2836 29.5945 57.4445 30.2711 56.9664C30.9477 56.4884 31.1086 55.5524 30.6305 54.8758L28.1805 56.607ZM36.1826 62.2546C35.6638 61.6087 34.7197 61.5056 34.0738 62.0243C33.4278 62.543 33.3247 63.4872 33.8434 64.1331L36.1826 62.2546ZM40.0063 71.2759C40.5705 71.8825 41.5197 71.9169 42.1262 71.3526C42.7328 70.7884 42.7672 69.8393 42.2029 69.2327L40.0063 71.2759ZM48.742 75.6941C48.1272 75.1389 47.1787 75.1871 46.6234 75.8019C46.0682 76.4167 46.1164 77.3653 46.7313 77.9205L48.742 75.6941ZM54.0797 83.9074C54.7494 84.3951 55.6876 84.2476 56.1753 83.5779C56.663 82.9083 56.5155 81.97 55.8458 81.4824L54.0797 83.9074ZM63.5404 86.3938C62.8145 85.9945 61.9024 86.2593 61.5032 86.9852C61.1039 87.711 61.3687 88.6231 62.0946 89.0224L63.5404 86.3938ZM71.1161 93.2663C71.88 93.5869 72.7591 93.2275 73.0797 92.4636C73.4003 91.6997 73.0409 90.8206 72.277 90.5L71.1161 93.2663ZM81.8051 94.0951C81.0193 93.8326 80.1696 94.2567 79.9071 95.0425C79.6446 95.8282 80.0687 96.678 80.8545 96.9405L81.8051 94.0951ZM90.8727 99.8229C91.6782 100.016 92.4881 99.5204 92.6817 98.7149C92.8752 97.9094 92.3792 97.0995 91.5737 96.9059L90.8727 99.8229ZM101.54 98.7932C100.719 98.6807 99.9625 99.2549 99.85 100.076C99.7375 100.896 100.312 101.653 101.132 101.765L101.54 98.7932ZM111.561 102.609C112.389 102.629 113.076 101.973 113.095 101.145C113.114 100.316 112.458 99.6295 111.63 99.6103L111.561 102.609ZM121.727 99.2221C120.903 99.3063 120.303 100.043 120.387 100.867C120.472 101.691 121.208 102.291 122.032 102.207L121.727 99.2221ZM132.375 100.454C133.18 100.261 133.677 99.4515 133.484 98.6458C133.292 97.8401 132.482 97.3433 131.677 97.536L132.375 100.454ZM141.306 94.5314C140.534 94.8308 140.15 95.6997 140.45 96.4721C140.749 97.2446 141.618 97.628 142.39 97.3286L141.306 94.5314ZM151.895 92.9052C152.622 92.508 152.89 91.5966 152.493 90.8696C152.095 90.1426 151.184 89.8753 150.457 90.2725L151.895 92.9052ZM159.017 84.8922C158.343 85.3737 158.187 86.3105 158.668 86.9846C159.15 87.6588 160.087 87.815 160.761 87.3336L159.017 84.8922ZM169.266 80.6367C169.902 80.1061 169.988 79.1602 169.457 78.524C168.927 77.8879 167.981 77.8024 167.345 78.3331L169.266 80.6367ZM175.525 71.0284C174.933 71.608 174.923 72.5577 175.502 73.1496C176.082 73.7416 177.031 73.7517 177.623 73.1722L175.525 71.0284ZM185.06 64.5992C185.538 63.9222 185.376 62.9864 184.699 62.5089C184.022 62.0314 183.086 62.1932 182.609 62.8702L185.06 64.5992ZM187.896 53.4479C187.548 54.1998 187.876 55.0912 188.628 55.4389C189.379 55.7866 190.271 55.4589 190.619 54.7069L187.896 53.4479ZM194.071 44.0398C194.098 43.2118 193.449 42.5185 192.621 42.4913C191.793 42.464 191.1 43.1131 191.072 43.9411L194.071 44.0398ZM188.713 34.8738C189.122 35.5947 190.037 35.8481 190.758 35.4399C191.479 35.0317 191.732 34.1164 191.324 33.3955L188.713 34.8738ZM183.703 25.5234C182.993 25.0967 182.072 25.3263 181.645 26.0364C181.218 26.7464 181.448 27.668 182.158 28.0947L183.703 25.5234ZM173.095 25.5365C173.923 25.5539 174.608 24.8965 174.626 24.0683C174.643 23.24 173.986 22.5545 173.157 22.5372L173.095 25.5365ZM162.909 24.3643C162.132 24.6507 161.734 25.513 162.02 26.2904C162.306 27.0677 163.169 27.4658 163.946 27.1794L162.909 24.3643ZM156.383 31.7437C156.987 31.1772 157.018 30.228 156.451 29.6235C155.885 29.0191 154.935 28.9883 154.331 29.5548L156.383 31.7437ZM148.803 38.0359C148.534 38.8195 148.952 39.6726 149.735 39.9413C150.519 40.2099 151.372 39.7925 151.641 39.0088L148.803 38.0359ZM150.868 47.686C150.754 46.8654 149.996 46.2925 149.176 46.4063C148.355 46.5201 147.782 47.2776 147.896 48.0981L150.868 47.686ZM151.047 57.8826C151.4 58.6324 152.293 58.9547 153.043 58.6025C153.793 58.2503 154.115 57.357 153.763 56.6071L151.047 57.8826ZM159.231 64.5567C158.646 63.97 157.696 63.9684 157.11 64.5533C156.523 65.1381 156.521 66.0878 157.106 66.6746L159.231 64.5567ZM165.582 72.9953C166.298 73.4125 167.216 73.1705 167.634 72.4548C168.051 71.7391 167.809 70.8207 167.093 70.4035L165.582 72.9953ZM176.072 74.9653C175.319 74.6198 174.428 74.9501 174.083 75.703C173.738 76.456 174.068 77.3464 174.821 77.6919L176.072 74.9653ZM184.238 81.803C185.001 82.1251 185.881 81.7674 186.203 81.0041C186.525 80.2409 186.167 79.361 185.404 79.039L184.238 81.803ZM194.814 82.9593C194.049 82.6424 193.171 83.006 192.854 83.7714C192.537 84.5368 192.901 85.4142 193.666 85.7311L194.814 82.9593ZM203.26 89.6659C204.03 89.9717 204.902 89.5955 205.208 88.8256C205.513 88.0557 205.137 87.1836 204.367 86.8778L203.26 89.6659ZM214.071 90.5417C213.291 90.2633 212.433 90.6702 212.155 91.4505C211.876 92.2307 212.283 93.0889 213.063 93.3673L214.071 90.5417ZM223.007 96.6823C223.799 96.9268 224.639 96.4833 224.883 95.6917C225.127 94.9002 224.684 94.0603 223.892 93.8159L223.007 96.6823ZM233.85 96.62C233.047 96.4166 232.231 96.9027 232.028 97.7058C231.824 98.5088 232.31 99.3247 233.113 99.5281L233.85 96.62ZM243.374 101.811C244.188 101.966 244.973 101.433 245.128 100.619C245.284 99.8051 244.75 99.0196 243.936 98.8643L243.374 101.811ZM254.131 100.468C253.309 100.367 252.56 100.951 252.459 101.773C252.358 102.595 252.942 103.344 253.764 103.445L254.131 100.468ZM264.248 104.369C265.075 104.412 265.781 103.777 265.825 102.95C265.868 102.123 265.233 101.416 264.406 101.373L264.248 104.369ZM274.72 101.555C273.892 101.569 273.232 102.252 273.246 103.081C273.26 103.909 273.943 104.569 274.771 104.555L274.72 101.555ZM285.279 104.02C286.105 103.951 286.718 103.226 286.648 102.4C286.579 101.575 285.854 100.962 285.028 101.031L285.279 104.02ZM295.287 99.8525C294.468 99.9713 293.899 100.732 294.018 101.552C294.137 102.372 294.898 102.94 295.718 102.822L295.287 99.8525ZM306.065 101.036C306.877 100.875 307.405 100.085 307.243 99.2724C307.081 98.4599 306.292 97.9324 305.479 98.0941L306.065 101.036ZM315.587 95.8396C314.782 96.0375 314.29 96.85 314.488 97.6544C314.686 98.4589 315.499 98.9507 316.303 98.7529L315.587 95.8396ZM326.496 96.0272C327.292 95.7969 327.751 94.9652 327.52 94.1694C327.29 93.3736 326.458 92.9151 325.663 93.1453L326.496 96.0272ZM335.708 90.0515C334.92 90.3075 334.489 91.1537 334.745 91.9416C335.001 92.7294 335.847 93.1606 336.635 92.9046L335.708 90.0515ZM346.676 89.5005C347.458 89.2254 347.868 88.3689 347.593 87.5875C347.318 86.8061 346.462 86.3956 345.68 86.6707L346.676 89.5005ZM355.586 83.0726C354.81 83.3626 354.416 84.2268 354.706 85.0028C354.996 85.7788 355.86 86.1728 356.636 85.8828L355.586 83.0726ZM366.527 82.0948C367.298 81.7926 367.678 80.9223 367.376 80.151C367.074 79.3796 366.204 78.9993 365.432 79.3015L366.527 82.0948ZM375.227 75.3873C374.46 75.6997 374.091 76.5749 374.403 77.3422C374.716 78.1095 375.591 78.4782 376.358 78.1658L375.227 75.3873ZM386.138 74.1165C386.902 73.7953 387.261 72.9159 386.939 72.1522C386.618 71.3886 385.739 71.03 384.975 71.3512L386.138 74.1165ZM394.681 67.2087C393.92 67.5378 393.571 68.4208 393.9 69.1811C394.229 69.9414 395.112 70.291 395.872 69.9619L394.681 67.2087ZM405.557 65.7156C406.314 65.3794 406.655 64.4931 406.319 63.7359C405.983 62.9788 405.096 62.6375 404.339 62.9737L405.557 65.7156ZM413.97 58.6457C413.216 58.9886 412.883 59.878 413.225 60.6321C413.568 61.3862 414.458 61.7196 415.212 61.3767L413.97 58.6457ZM424.815 56.9589C425.566 56.6093 425.891 55.717 425.542 54.966C425.192 54.2149 424.3 53.8895 423.549 54.2391L424.815 56.9589ZM433.082 49.7461C432.334 50.1032 432.018 50.9987 432.375 51.7462C432.732 52.4937 433.627 52.8101 434.375 52.453L433.082 49.7461ZM2.175 1.80851C0.74822 2.27147 0.748257 2.27151 0.748275 2.27157C0.748272 2.27161 0.748295 2.27168 0.74831 2.27175C0.748364 2.27185 0.748411 2.27199 0.748451 2.27217C0.748554 2.2725 0.748698 2.27293 0.748883 2.27344C0.749208 2.27451 0.749696 2.27594 0.750279 2.27778C0.751468 2.28144 0.753173 2.28665 0.755386 2.29339C0.759791 2.3069 0.766231 2.32656 0.774723 2.35225C0.791662 2.40368 0.816718 2.47931 0.849879 2.57832C0.916223 2.77634 1.01495 3.06795 1.14603 3.44656C1.40813 4.20379 1.79955 5.30921 2.31953 6.71034L5.13211 5.66659C4.62032 4.28751 4.23633 3.20295 3.98099 2.46523C3.85331 2.0964 3.75779 1.81431 3.69457 1.6255C3.66294 1.5311 3.6394 1.46002 3.62392 1.4131C3.61619 1.38963 3.61046 1.37221 3.60678 1.36092C3.60492 1.35528 3.6036 1.35115 3.60276 1.34859C3.60233 1.34732 3.60204 1.34642 3.6019 1.3459C3.6018 1.34566 3.60174 1.34551 3.60173 1.34545C3.60173 1.34541 3.60173 1.34541 3.60174 1.34542C3.60172 1.34545 3.60174 1.34547 3.60175 1.34547C3.60175 1.34552 3.60178 1.34555 2.175 1.80851ZM5.77428 15.4324C6.86296 18.027 8.12752 20.9151 9.56676 24.0115L12.2872 22.7471C10.8653 19.6879 9.61601 16.8346 8.54063 14.2717L5.77428 15.4324ZM13.6899 32.4538C15.0655 35.1357 16.5499 37.9026 18.1427 40.7124L20.7525 39.233C19.182 36.4625 17.7174 33.7325 16.3593 31.0846L13.6899 32.4538ZM22.962 48.78C24.6104 51.3965 26.35 54.0164 28.1805 56.607L30.6305 54.8758C28.8331 52.3319 27.1228 49.7564 25.5003 47.1809L22.962 48.78ZM33.8434 64.1331C35.8101 66.582 37.8645 68.9733 40.0063 71.2759L42.2029 69.2327C40.1148 66.9878 38.1077 64.652 36.1826 62.2546L33.8434 64.1331ZM46.7313 77.9205C49.0889 80.0499 51.5385 82.0566 54.0797 83.9074L55.8458 81.4824C53.3969 79.6988 51.0287 77.7594 48.742 75.6941L46.7313 77.9205ZM62.0946 89.0224C63.4897 89.7897 64.9089 90.5075 66.3524 91.1712L67.6056 88.4455C66.2299 87.813 64.8749 87.1278 63.5404 86.3938L62.0946 89.0224ZM66.3524 91.1712C67.9404 91.9013 69.5285 92.6 71.1161 93.2663L72.277 90.5C70.7212 89.8471 69.1639 89.162 67.6056 88.4455L66.3524 91.1712ZM80.8545 96.9405C84.2005 98.0583 87.5413 99.0224 90.8727 99.8229L91.5737 96.9059C88.3311 96.1268 85.0736 95.187 81.8051 94.0951L80.8545 96.9405ZM101.132 101.765C104.625 102.244 108.103 102.529 111.561 102.609L111.63 99.6103C108.291 99.5329 104.926 99.2573 101.54 98.7932L101.132 101.765ZM122.032 102.207C125.509 101.851 128.959 101.271 132.375 100.454L131.677 97.536C128.393 98.3217 125.075 98.8801 121.727 99.2221L122.032 102.207ZM142.39 97.3286C145.598 96.085 148.768 94.6137 151.895 92.9052L150.457 90.2725C147.443 91.9193 144.391 93.3355 141.306 94.5314L142.39 97.3286ZM160.761 87.3336C162.164 86.3318 163.556 85.2778 164.938 84.1706L163.062 81.8294C161.723 82.9026 160.374 83.9231 159.017 84.8922L160.761 87.3336ZM164.938 84.1706C166.482 82.9335 167.921 81.7588 169.266 80.6367L167.345 78.3331C166.017 79.4406 164.593 80.6027 163.062 81.8294L164.938 84.1706ZM177.623 73.1722C180.736 70.1252 183.096 67.3838 185.06 64.5992L182.609 62.8702C180.768 65.4794 178.533 68.0836 175.525 71.0284L177.623 73.1722ZM190.619 54.7069C191.357 53.1106 192.096 51.417 192.879 49.5909L190.121 48.4091C189.342 50.2266 188.616 51.8899 187.896 53.4479L190.619 54.7069ZM192.879 49.5909C193.623 47.8544 194.007 45.9682 194.071 44.0398L191.072 43.9411C191.02 45.5386 190.703 47.0521 190.121 48.4091L192.879 49.5909ZM191.324 33.3955C189.565 30.2895 186.992 27.5001 183.703 25.5234L182.158 28.0947C184.97 29.7851 187.189 32.1831 188.713 34.8738L191.324 33.3955ZM173.157 22.5372C171.421 22.5008 169.603 22.6564 167.711 23.0281L168.289 25.9719C169.979 25.6399 171.582 25.5049 173.095 25.5365L173.157 22.5372ZM167.711 23.0281C166.02 23.3603 164.417 23.8089 162.909 24.3643L163.946 27.1794C165.298 26.6813 166.748 26.2747 168.289 25.9719L167.711 23.0281ZM154.331 29.5548C151.777 31.9484 149.901 34.8322 148.803 38.0359L151.641 39.0088C152.576 36.2817 154.176 33.8118 156.383 31.7437L154.331 29.5548ZM147.896 48.0981C148.12 49.7125 148.514 51.3484 149.082 52.9907L151.917 52.0093C151.41 50.5444 151.064 49.0989 150.868 47.686L147.896 48.0981ZM149.082 52.9907C149.691 54.7474 150.337 56.3705 151.047 57.8826L153.763 56.6071C153.106 55.2081 152.498 53.6857 151.917 52.0093L149.082 52.9907ZM157.106 66.6746C159.409 68.9852 162.177 71.0102 165.582 72.9953L167.093 70.4035C163.841 68.5081 161.301 66.6335 159.231 64.5567L157.106 66.6746ZM174.821 77.6919C177.629 78.9806 180.754 80.333 184.238 81.803L185.404 79.039C181.932 77.5742 178.84 76.2354 176.072 74.9653L174.821 77.6919ZM193.666 85.7311C195.189 86.3618 196.768 87.015 198.404 87.6938L199.554 84.9228C197.916 84.2434 196.337 83.5898 194.814 82.9593L193.666 85.7311ZM198.404 87.6938C200.038 88.3714 201.656 89.0288 203.26 89.6659L204.367 86.8778C202.778 86.2465 201.174 85.5948 199.554 84.9228L198.404 87.6938ZM213.063 93.3673C216.43 94.5682 219.74 95.6734 223.007 96.6823L223.892 93.8159C220.67 92.8206 217.4 91.7292 214.071 90.5417L213.063 93.3673ZM233.113 99.5281C236.565 100.402 239.98 101.163 243.374 101.811L243.936 98.8643C240.603 98.2282 237.246 97.4802 233.85 96.62L233.113 99.5281ZM253.764 103.445C257.26 103.876 260.748 104.184 264.248 104.369L264.406 101.373C260.977 101.192 257.558 100.89 254.131 100.468L253.764 103.445ZM274.771 104.555C278.243 104.495 281.74 104.317 285.279 104.02L285.028 101.031C281.554 101.322 278.123 101.497 274.72 101.555L274.771 104.555ZM295.718 102.822C299.113 102.33 302.557 101.735 306.065 101.036L305.479 98.0941C302.02 98.7826 298.628 99.3686 295.287 99.8525L295.718 102.822ZM316.303 98.7529C317.981 98.3402 319.675 97.9057 321.386 97.4493L320.613 94.5506C318.92 95.0022 317.245 95.4318 315.587 95.8396L316.303 98.7529ZM321.386 97.4493C323.061 97.0028 324.766 96.5278 326.496 96.0272L325.663 93.1453C323.951 93.6406 322.266 94.1099 320.613 94.5506L321.386 97.4493ZM336.635 92.9046C339.931 91.8335 343.287 90.6936 346.676 89.5005L345.68 86.6707C342.311 87.8567 338.979 88.9887 335.708 90.0515L336.635 92.9046ZM356.636 85.8828C359.932 84.6507 363.237 83.3834 366.527 82.0948L365.432 79.3015C362.156 80.5849 358.866 81.8465 355.586 83.0726L356.636 85.8828ZM376.358 78.1658C379.666 76.819 382.934 75.4643 386.138 74.1165L384.975 71.3512C381.781 72.6949 378.523 74.0452 375.227 75.3873L376.358 78.1658ZM395.872 69.9619C399.22 68.5131 402.459 67.0911 405.557 65.7156L404.339 62.9737C401.249 64.3457 398.019 65.7639 394.681 67.2087L395.872 69.9619ZM415.212 61.3767C418.725 59.7794 421.948 58.2931 424.815 56.9589L423.549 54.2391C420.69 55.5698 417.474 57.0524 413.97 58.6457L415.212 61.3767Z" fill="url(#paint0_linear_176_57)"/>
<defs>
<linearGradient id="paint0_linear_176_57" x1="24.4999" y1="31" x2="446.5" y2="62.5" gradientUnits="userSpaceOnUse">
<stop stop-color="white"/>
<stop offset="1" stop-color="#E7ACCB" stop-opacity="0.2"/>
</linearGradient>
</defs>
</svg>
