<svg width="670" height="200" viewBox="0 0 670 200" fill="none" xmlns="http://www.w3.org/2000/svg">
<path style="mix-blend-mode:screen" opacity="0.7" d="M639.039 140.008C637.958 147.299 632.194 152.872 625.238 152.872C622.855 152.872 620.638 152.234 618.67 151.07C616.148 155.034 611.936 157.641 607.197 157.641C606.864 157.641 606.532 157.613 606.199 157.585C603.622 168.758 586.883 177.38 566.597 177.38C559.475 177.38 552.796 176.299 547.004 174.441C544.842 175.467 542.486 176.022 539.992 176.022C537.831 176.022 535.752 175.578 533.812 174.802C528.464 181.4 520.676 185.559 511.974 185.559C503.272 185.559 496.122 181.733 490.801 175.606C482.072 189.634 467.356 198.839 450.672 198.839C440.003 198.839 430.137 195.068 422.1 188.664C418.525 194.957 412.179 199.172 404.918 199.172C397.657 199.172 391.2 194.902 387.653 188.525C384.798 189.662 381.694 190.327 378.48 190.327C368.78 190.327 360.3 184.672 355.616 176.216C347.94 186.086 333.75 192.712 317.483 192.712C304.291 192.712 292.43 188.331 284.338 181.4C279.931 186.28 273.834 189.302 267.072 189.302C258.509 189.302 250.999 184.45 246.675 177.103C243.849 180.402 239.803 182.509 235.341 182.509C230.879 182.509 226.694 180.347 223.84 176.909C218.768 181.234 212.394 183.868 205.466 183.868C199.84 183.868 194.575 182.121 190.085 179.155C187.341 184.006 182.436 187.278 176.838 187.278C170.575 187.278 165.171 183.202 162.704 177.353C157.383 182.648 150.344 185.919 142.585 185.919C133.162 185.919 124.765 181.123 119.278 173.665C116.146 177.02 111.851 179.099 107.084 179.099C102.317 179.099 98.1603 177.075 95.0287 173.776C92.1188 175.44 88.8209 176.382 85.3013 176.382C78.2899 176.382 72.1098 172.639 68.2577 166.9C67.1491 167.289 65.9852 167.51 64.7658 167.51C59.4171 167.51 54.9276 163.407 53.8191 157.89C52.9045 157.945 51.99 157.973 51.0478 157.973C41.5144 157.973 33.3113 155.644 29.3206 152.29C27.6855 152.428 25.995 152.512 24.2768 152.512C10.8636 152.512 0 147.937 0 142.309C0 136.681 10.8636 132.106 24.2768 132.106C25.1913 132.106 26.1059 132.106 26.9927 132.162C29.764 127.809 39.1865 124.593 50.4103 124.593C51.8237 124.593 53.1817 124.649 54.5396 124.759C55.8699 119.187 60.4703 115.084 65.9852 115.084C66.2346 115.084 66.4563 115.084 66.7057 115.111C67.6203 105.519 75.0197 98.0332 84.0542 98.0332C84.9133 98.0332 85.7447 98.1164 86.5761 98.255C90.7885 85.8068 101.708 76.935 114.566 76.935C119.416 76.935 123.989 78.238 128.035 80.4837C131.361 73.5249 138.012 68.7563 145.688 68.7563C147.434 68.7563 149.153 69.0335 150.76 69.5049C150.732 68.8118 150.649 68.1187 150.649 67.3978C150.649 48.6007 164.589 33.3524 181.771 33.3524C186.288 33.3524 190.556 34.4336 194.436 36.3188C204.246 24.0924 218.63 16.3296 234.703 16.3296C246.371 16.3296 257.151 20.4328 265.964 27.3639C272.227 19.7674 281.262 14.9711 291.349 14.9711C300.522 14.9711 308.836 18.9357 314.961 25.3677C318.425 18.9634 324.799 14.6384 332.115 14.6384C332.476 14.6384 332.836 14.6661 333.196 14.6939C337.824 5.90525 346.471 0 356.392 0C366.313 0 375.514 6.2934 380.031 15.5256C381.805 14.9434 383.69 14.6384 385.657 14.6384C392.752 14.6384 398.987 18.7139 402.507 24.841C407.717 16.0524 416.752 10.2025 427.061 10.2025C439.088 10.2025 449.425 18.1594 453.915 29.5264C460.123 22.2626 468.908 17.6881 478.718 17.6881C497.452 17.6881 512.639 34.295 512.639 54.811C512.639 58.2211 512.196 61.5203 511.392 64.6531C512.501 64.4868 513.637 64.3481 514.801 64.3481C522.81 64.3481 529.849 68.7009 534.145 75.3547C537.969 70.697 543.484 67.7582 549.664 67.7582C558.089 67.7582 565.35 73.2477 568.62 81.1214C571.225 80.4283 573.941 80.0124 576.74 80.0124C593.174 80.0124 606.864 92.7933 609.996 109.761C610.024 109.816 610.079 109.899 610.107 109.955C612.435 108.069 615.317 106.933 618.448 106.933C626.18 106.933 632.444 113.781 632.444 122.264C632.444 122.403 632.444 122.514 632.444 122.625C653.228 122.957 669.662 126.756 669.662 131.441C669.662 135.6 656.637 139.093 639.122 140.036L639.039 140.008Z" fill="url(#paint0_linear_169_2255)"/>
<defs>
<linearGradient id="paint0_linear_169_2255" x1="351" y1="309.5" x2="345.141" y2="-0.0277177" gradientUnits="userSpaceOnUse">
<stop offset="0.0397744"/>
<stop offset="0.126946" stop-color="#0D0D0D"/>
<stop offset="0.323384" stop-color="#2F2F2F"/>
<stop offset="0.496122" stop-color="#676767"/>
<stop offset="0.64881" stop-color="#B3B3B3"/>
<stop offset="1" stop-color="white"/>
</linearGradient>
</defs>
</svg>
