<svg width="268" height="110" viewBox="0 0 268 110" fill="none" xmlns="http://www.w3.org/2000/svg">
<path d="M3.06494 73.9232C15.6372 109.274 58.6657 90.6483 58.6657 90.6483C58.6657 90.6483 99.4005 110 126.759 110C171.058 110 188.158 90.6483 188.158 90.6483C188.158 90.6483 237.175 118.835 261.317 81.2858C285.46 43.7364 236.425 31.3151 236.425 31.3151C236.425 31.3151 233.019 11.3519 193.996 2.52091C172.781 -2.28002 145.726 16.4947 145.726 16.4947C145.726 16.4947 119.655 -7.70765 73.4796 2.52091C34.7971 11.0897 35.2547 31.3152 35.2547 31.3152C35.2547 31.3152 -12.3261 30.6464 3.06494 73.9232Z" fill="#FFD8E8"/>
</svg>
